<svg xmlns="http://www.w3.org/2000/svg" xmlns:xlink="http://www.w3.org/1999/xlink" 
    version="1.1" id="Layer_1" x="0px" y="0px" width="218px" height="45px" viewBox="0 0 218 45" 
    enable-background="new 0 0 218 45" xml:space="preserve">
    <path fill="#000" d="M61.161,17.457v5.303c1.079-1.201,2.617-1.885,4.23-1.882c1.641,0,2.877,0.547,3.708,1.642  c0.657,0.967,0.976,2.124,0.907,3.289v7.931c0,0.999-0.416,1.498-1.246,1.498c-0.831,0-1.236-0.5-1.218-1.498v-7.353  c0-2.192-0.868-3.29-2.604-3.29c-1.364-0.042-2.636,0.684-3.291,1.88c-0.395,0.629-0.592,1.665-0.592,3.112v5.678  c0,0.981-0.396,1.471-1.189,1.471c-0.793,0-1.19-0.489-1.19-1.471v-16.31c0-1,0.406-1.499,1.217-1.499  C60.708,15.957,61.13,16.457,61.161,17.457z"/>
    <path fill="#000" d="M107.986,23.237v10.502c0,0.999-0.415,1.498-1.246,1.498c-0.83,0-1.235-0.5-1.217-1.498V23.237h-1.133  c-0.848,0-1.273-0.339-1.273-1.021c0-0.679,0.425-1.028,1.273-1.047h1.133v-1.157c0-1.661,0.5-2.811,1.5-3.45  c0.748-0.427,1.602-0.632,2.462-0.592c1,0,1.499,0.35,1.499,1.048c0.026,0.379-0.178,0.737-0.517,0.907  c-0.292,0.105-0.599,0.153-0.908,0.141c-0.755,0.094-1.209,0.292-1.359,0.592c-0.149,0.301-0.216,1.141-0.197,2.521h1.724  c0.831,0,1.246,0.349,1.246,1.046c0,0.699-0.415,1.039-1.246,1.021L107.986,23.237z"/>
    <path fill="#000" d="M122.299,22.984v-5.528c0-1,0.404-1.499,1.218-1.499c0.813,0,1.226,0.5,1.244,1.499v16.283  c0,0.999-0.416,1.498-1.244,1.498c-0.6,0.056-1.133-0.385-1.186-0.984c-0.002-0.011-0.003-0.021-0.003-0.035  c-0.026-0.273-0.036-0.548-0.029-0.821c-0.985,1.267-2.521,1.981-4.127,1.921c-1.692,0.079-3.324-0.637-4.412-1.937  c-1.077-1.291-1.614-3.06-1.614-5.305c0-2.194,0.528-3.94,1.584-5.236c1.991-2.335,5.496-2.616,7.833-0.625  c0.271,0.23,0.52,0.487,0.741,0.767L122.299,22.984z M118.46,22.956c-1.089-0.048-2.13,0.451-2.774,1.33  c-0.657,0.887-0.985,2.133-0.985,3.736c0,3.548,1.243,5.32,3.736,5.32c1.111,0.035,2.17-0.484,2.819-1.386  c0.689-0.924,1.034-2.206,1.034-3.85c0-1.642-0.338-2.896-1.02-3.761C120.624,23.443,119.57,22.921,118.46,22.956z"/>
    <path fill="#000" d="M131.894,23.237v10.502c0,0.999-0.415,1.498-1.245,1.498s-1.237-0.5-1.217-1.498V23.237h-1.133  c-0.852,0-1.274-0.339-1.274-1.021c0-0.679,0.426-1.028,1.274-1.047h1.133v-1.157c0-1.661,0.499-2.811,1.498-3.45  c0.748-0.427,1.602-0.632,2.464-0.592c1,0,1.498,0.35,1.498,1.048c0.024,0.383-0.189,0.742-0.534,0.907  c-0.29,0.105-0.597,0.153-0.908,0.141c-0.756,0.094-1.208,0.292-1.359,0.592c-0.148,0.301-0.214,1.141-0.196,2.521h1.725  c0.829,0,1.244,0.349,1.244,1.046c0,0.699-0.415,1.039-1.244,1.021L131.894,23.237z"/>
    <path fill="#000" d="M145.162,33.711v-0.226c-1.108,1.152-2.632,1.813-4.23,1.838c-1.213,0.056-2.399-0.377-3.29-1.203  c-0.846-0.816-1.305-1.953-1.259-3.126c-0.077-1.314,0.604-2.556,1.752-3.196c0.512-0.314,1.963-0.701,4.357-1.161  c1.376-0.282,2.179-0.527,2.407-0.734c0.143-0.217,0.202-0.479,0.169-0.736c0-1.53-0.94-2.295-2.819-2.295  c-0.674-0.047-1.345,0.1-1.937,0.424c-0.501,0.391-0.855,0.939-1.006,1.554c-0.159,0.468-0.612,0.771-1.106,0.738  c-0.811,0-1.217-0.313-1.217-0.939c0.026-0.874,0.404-1.702,1.048-2.294c0.939-0.962,2.382-1.442,4.328-1.442  c3.375,0,5.064,1.528,5.064,4.584v8.355c0,0.925-0.378,1.387-1.135,1.387C145.535,35.237,145.159,34.729,145.162,33.711z   M145.162,27.854c-1.061,0.356-2.148,0.632-3.252,0.823c-0.822,0.11-1.606,0.403-2.299,0.859c-0.448,0.406-0.683,0.997-0.635,1.598  c0,1.412,0.802,2.119,2.406,2.119c0.823,0.017,1.626-0.249,2.28-0.753c0.648-0.494,1.103-1.2,1.287-1.993  C145.116,29.635,145.188,28.743,145.162,27.854z"/>
    <path fill="#000" d="M153.82,17.457v5.528c1.028-1.346,2.635-2.122,4.329-2.091c1.64-0.059,3.209,0.665,4.23,1.949  c1.056,1.302,1.585,3.047,1.585,5.237c0,2.191-0.537,3.954-1.614,5.293c-1.063,1.291-2.668,2.012-4.34,1.947  c-1.577,0.036-3.096-0.591-4.188-1.725c0.016,0.348-0.043,0.694-0.172,1.021c-0.187,0.414-0.62,0.663-1.075,0.621  c-0.813,0-1.218-0.501-1.218-1.5v-16.28c0-1,0.405-1.499,1.218-1.499C153.387,15.957,153.802,16.457,153.82,17.457z M157.698,22.947  c-1.119-0.052-2.19,0.457-2.857,1.356c-0.68,0.907-1.019,2.172-1.019,3.795s0.343,2.907,1.034,3.85  c0.651,0.901,1.707,1.421,2.818,1.386c1.086,0.044,2.119-0.467,2.746-1.357c0.66-0.905,0.991-2.17,0.991-3.792  c0.014-3.486-1.226-5.227-3.714-5.227V22.947L157.698,22.947z"/>
    <path fill="#000" d="M169.525,22.42v1.147c0.37-0.788,0.918-1.479,1.598-2.021c0.647-0.398,1.401-0.59,2.162-0.55  c0.904,0,1.358,0.387,1.358,1.159c0.026,0.43-0.208,0.833-0.593,1.021c-0.075,0.019-0.319,0.057-0.734,0.112  c-1.178,0.089-2.253,0.712-2.918,1.688c-0.384,0.647-0.626,1.369-0.704,2.118c-0.038,0.377-0.057,1.122-0.057,2.238v4.387  c0,0.999-0.414,1.497-1.245,1.497c-0.827,0-1.236-0.499-1.216-1.497V22.42c0-0.962,0.389-1.442,1.161-1.442  C169.109,20.976,169.505,21.458,169.525,22.42z"/>
    <path fill="#000" d="M178.121,15.971c0.381,0.001,0.746,0.159,1.006,0.437c0.578,0.57,0.584,1.502,0.014,2.081  c-0.57,0.579-1.502,0.583-2.078,0.012c-0.284-0.279-0.441-0.661-0.438-1.06c-0.007-0.395,0.151-0.776,0.438-1.047  C177.342,16.116,177.725,15.963,178.121,15.971z M179.311,22.477v11.281c0,0.999-0.415,1.497-1.245,1.497  c-0.831,0-1.237-0.499-1.217-1.497V22.477c0-0.999,0.404-1.499,1.217-1.499C178.876,20.976,179.292,21.478,179.311,22.477z"/>
    <path fill="#000" d="M193.714,28.699h-8.716c0.057,3.037,1.424,4.555,4.104,4.555c1.413,0,2.563-0.687,3.45-2.063  c0.218-0.453,0.66-0.755,1.162-0.794c0.811,0,1.217,0.377,1.217,1.132c-0.032,0.495-0.231,0.964-0.565,1.332  c-1.242,1.603-3.178,2.517-5.205,2.458c-2.057,0-3.689-0.645-4.895-1.937c-1.207-1.291-1.809-3.03-1.809-5.223  c0-2.147,0.605-3.899,1.822-5.25c1.206-1.337,2.938-2.078,4.738-2.02c1.643-0.055,3.233,0.594,4.371,1.78  c1.148,1.234,1.756,2.876,1.687,4.56c0.043,0.405-0.063,0.814-0.296,1.146C194.481,28.622,194.098,28.738,193.714,28.699z   M185.055,26.722h7.609c-0.28-2.508-1.527-3.761-3.737-3.761C186.719,22.961,185.428,24.214,185.055,26.722z"/>
    <path fill="#000" d="M200.843,27.257l5.172-5.433c0.313-0.404,0.776-0.668,1.283-0.733c0.542,0.012,0.98,0.448,0.99,0.993  c-0.083,0.497-0.345,0.951-0.738,1.272l-3.336,3.42l4.471,6.338c0.225,0.282,0.354,0.629,0.366,0.99  c-0.007,0.304-0.145,0.588-0.379,0.781c-0.222,0.223-0.523,0.349-0.836,0.352c-0.482-0.051-0.907-0.34-1.134-0.766l-4.104-5.969  l-1.755,1.723v3.508c0,0.998-0.415,1.498-1.244,1.498c-0.83,0-1.24-0.5-1.232-1.495v-16.28c0-1,0.405-1.499,1.217-1.499  s1.231,0.5,1.26,1.499V27.257L200.843,27.257z"/>
    <path fill="#000" d="M83.991,24.879c-0.356-0.003-0.689-0.179-0.893-0.471c-1.273-1.906-3.849-2.418-5.756-1.147  c-0.455,0.305-0.845,0.693-1.149,1.147c-0.358,0.493-1.047,0.601-1.539,0.242c-0.493-0.356-0.601-1.047-0.242-1.539  c1.988-2.889,5.941-3.62,8.83-1.631c0.639,0.439,1.193,0.992,1.632,1.631c0.358,0.491,0.251,1.179-0.24,1.538  c-0.188,0.137-0.415,0.211-0.648,0.211L83.991,24.879z"/>
    <path fill="#000" d="M79.648,35.271c-3.676,0-6.666-3.233-6.666-7.215c0-0.68,0.088-1.356,0.263-2.011  c0.169-0.587,0.778-0.922,1.362-0.754c0.568,0.163,0.906,0.746,0.764,1.319c-0.126,0.471-0.189,0.956-0.188,1.444  c0,2.762,2.003,5.009,4.461,5.009s4.461-2.247,4.461-5.009c0-0.488-0.063-0.974-0.188-1.444c-0.091-0.598,0.322-1.161,0.922-1.251  c0.506-0.077,0.999,0.208,1.188,0.686c0.175,0.654,0.263,1.331,0.263,2.011C86.309,32.028,83.319,35.271,79.648,35.271z"/>
    <path fill="#000" d="M99.69,24.879c-0.356-0.003-0.688-0.179-0.893-0.471c-1.272-1.906-3.849-2.418-5.756-1.147  c-0.455,0.305-0.844,0.693-1.148,1.147c-0.358,0.493-1.047,0.601-1.54,0.242c-0.491-0.356-0.6-1.047-0.242-1.539  c1.989-2.889,5.942-3.62,8.832-1.631c0.639,0.439,1.192,0.992,1.631,1.631c0.357,0.491,0.251,1.179-0.239,1.538  c-0.189,0.137-0.416,0.211-0.649,0.211L99.69,24.879z"/>
    <path fill="#000" d="M95.347,35.271c-3.676,0-6.666-3.233-6.666-7.215c-0.001-0.68,0.088-1.356,0.263-2.011  c0.146-0.593,0.742-0.952,1.331-0.804c0.59,0.145,0.95,0.741,0.803,1.332c-0.003,0.013-0.006,0.027-0.01,0.039  c-0.126,0.472-0.188,0.956-0.188,1.443c0,2.764,2.001,5.012,4.46,5.012c2.459,0,4.46-2.248,4.46-5.012  c0.001-0.487-0.062-0.972-0.187-1.443c-0.169-0.583,0.168-1.193,0.752-1.36c0.583-0.168,1.193,0.169,1.361,0.752  c0.004,0.014,0.009,0.027,0.012,0.041c0.175,0.656,0.263,1.331,0.263,2.013C102.008,32.028,99.023,35.271,95.347,35.271z"/>
    <path fill="#00A1DF" d="M39.084,14.636c-0.995,0.001-1.929-0.474-2.515-1.278c-2.411-3.29-5.964-5.212-9.748-5.212  s-7.337,1.88-9.748,5.212c-1.055,1.354-3.008,1.595-4.361,0.541c-1.287-1.002-1.579-2.83-0.669-4.184  c3.596-4.95,8.983-7.77,14.759-7.77c5.776,0,11.201,2.82,14.797,7.77c0.999,1.398,0.676,3.341-0.722,4.341  C40.354,14.43,39.727,14.633,39.084,14.636z"/>
    <path fill="#00A1DF" d="M26.802,44C16.46,44,8,34.848,8,23.627c-0.002-1.923,0.249-3.841,0.747-5.7  c0.446-1.66,2.151-2.644,3.81-2.198c1.659,0.446,2.642,2.15,2.198,3.81l0,0c-0.356,1.33-0.537,2.699-0.536,4.075  c0,7.802,5.641,14.152,12.602,14.152c6.96,0,12.597-6.336,12.597-14.14c0-1.375-0.179-2.745-0.536-4.074  c-0.449-1.659,0.532-3.368,2.191-3.817c1.659-0.45,3.367,0.532,3.817,2.191c0.497,1.854,0.748,3.768,0.747,5.687  C45.636,34.848,37.194,44,26.802,44z"/>
</svg>
